<svg width="112" height="22" viewBox="0 0 112 22" fill="none" xmlns="http://www.w3.org/2000/svg">
<path d="M7.58209 18.4478C5.34328 18.4478 3.91045 16.7164 3.91045 14.5373C3.91045 12.3582 5.34328 10.597 7.58209 10.597C9.19403 10.597 10.3881 11.5522 10.6866 12.9254H14.6866C14.2388 9.49254 11.2537 7.04478 7.58209 7.04478C3.31343 7.04478 0 10.2985 0 14.5373C0 18.7761 3.31343 22 7.58209 22C11.2537 22 14.2388 19.5821 14.6866 16.1493H10.6866C10.3881 17.5224 9.19403 18.4478 7.58209 18.4478Z" fill="#4F9EEA"/>
<path d="M26.3398 7.40298V16.5672C25.3249 17.791 24.1308 18.4478 23.0562 18.4478C20.9965 18.4478 19.8323 17.1343 19.8323 14.806V7.40298H15.9219V15.0448C15.9219 19.2239 18.4293 22 22.2204 22C23.8323 22 25.1756 21.4328 26.3398 20.5075V21.6418H30.2502V7.40298H26.3398Z" fill="#4F9EEA"/>
<path d="M35.1348 16.7164L31.5229 16.6866C31.8214 20.8358 34.9855 22 38.1199 22C41.7318 22 44.4781 20.4478 44.4781 17.2836C44.4781 14.5373 42.4184 13.5224 40.2094 13.1343L37.6423 12.7164C36.2691 12.4776 35.8811 11.8507 35.8811 11.3134C35.8811 10.6269 36.5975 10.1194 38.09 10.1194C39.4632 10.1194 40.687 10.5373 40.7766 11.8209H44.3885C44.0602 7.73134 40.6572 7.01493 38.09 7.01493C34.4781 7.01493 32.0005 8.77612 32.0005 11.7015C32.0005 14.3881 34.1199 15.5224 36.2094 15.8806L39.284 16.4179C40.2691 16.597 40.7467 17.0746 40.7467 17.6418C40.7467 18.4478 39.702 18.8358 38.2094 18.8358C36.5378 18.8358 35.3736 18.3284 35.1348 16.7164Z" fill="#4F9EEA"/>
<path d="M56.2663 17.8209C55.5499 18.1194 54.7141 18.3881 53.8186 18.3881C52.3559 18.3881 51.3111 17.6418 51.3111 15.9701V10.6866H56.535V7.40298H51.3111V2.23881H47.4007V7.40298H44.3559V10.6866H47.4007V15.9701C47.4007 19.6119 49.5499 22 53.3708 22C54.4156 22 55.4902 21.8806 56.8036 21.3731L56.2663 17.8209Z" fill="#4F9EEA"/>
<path d="M64.3743 7.04478C59.8967 7.04478 56.7922 10.1194 56.7922 14.5373C56.7922 18.9254 59.8967 22 64.3743 22C68.8221 22 71.9265 18.9254 71.9265 14.5373C71.9265 10.1194 68.8221 7.04478 64.3743 7.04478ZM64.3743 18.4478C62.1952 18.4478 60.7027 16.8358 60.7027 14.5373C60.7027 12.209 62.1952 10.597 64.3743 10.597C66.5236 10.597 68.0161 12.209 68.0161 14.5373C68.0161 16.8358 66.5236 18.4478 64.3743 18.4478Z" fill="#4F9EEA"/>
<path d="M84.0135 0.447761V8.20895C82.909 7.49254 81.5061 7.04478 79.924 7.04478C75.9837 7.04478 72.8195 10.3881 72.8195 14.5075C72.8195 18.6567 75.9837 22 79.924 22C81.5061 22 82.909 21.5522 84.0135 20.8358V21.6418H87.924V0.447761H84.0135ZM80.521 18.4478C78.2822 18.4478 76.7299 16.6567 76.7299 14.5075C76.7299 12.3881 78.2822 10.597 80.521 10.597C81.8046 10.597 83.0881 10.9552 84.0135 12.2687V16.7761C83.0881 18.0896 81.8046 18.4478 80.521 18.4478Z" fill="#4F9EEA"/>
<path d="M92.5919 4.62686C93.9053 4.62686 94.9799 3.64179 94.9799 2.32836C94.9799 0.985074 93.9053 0 92.5919 0C91.2486 0 90.2038 0.985074 90.2038 2.32836C90.2038 3.64179 91.2486 4.62686 92.5919 4.62686ZM90.6516 7.40298V21.6418H94.562V7.40298H90.6516Z" fill="#4F9EEA"/>
<path d="M107.614 7.40298V8.20895C106.51 7.49254 105.107 7.04478 103.525 7.04478C99.5844 7.04478 96.4202 10.3881 96.4202 14.5373C96.4202 18.6567 99.5844 22 103.525 22C105.107 22 106.51 21.5522 107.614 20.8358V21.6418H111.525V7.40298H107.614ZM104.122 18.4478C101.883 18.4478 100.331 16.6567 100.331 14.5373C100.331 12.3881 101.883 10.597 104.122 10.597C105.405 10.597 106.689 10.9552 107.614 12.2687V16.7761C106.689 18.0896 105.405 18.4478 104.122 18.4478Z" fill="#4F9EEA"/>
</svg>
