<svg width="147" height="40" viewBox="0 0 147 40" fill="none" xmlns="http://www.w3.org/2000/svg">
<path d="M19.6111 12.8889C17.1667 12.1111 13.8333 11.4444 10.6111 11.4444C5.44444 11.4444 0.666667 13.5 0.666667 18.9444C0.666667 29.1667 15.2222 26.9444 15.2222 31.7222C15.2222 34.1111 12.8889 34.7222 10 34.7222C6.66667 34.7222 2.61111 33.5556 0.722222 32.8333L0 38.4444C2.66667 39.2222 6.55556 40 10.0556 40C15.7778 40 20.8333 38.3333 20.8333 32.0556C20.8333 21.7222 6.27778 24.3889 6.27778 19.1667C6.27778 17.3889 8.38889 16.7222 10.8889 16.7222C13.9444 16.7222 17.6111 17.5556 18.8333 18L19.6111 12.8889Z" fill="#1DA1F2"/>
<path d="M45.7995 39.6111V11.8333H40.2439V30.5C38.5217 32.4444 35.4106 34.7222 32.5773 34.7222C30.2439 34.7222 29.4106 33.4444 29.4106 31.1667V11.8333H23.855V31.4444C23.855 37.0556 26.855 40 31.9661 40C35.0217 40 37.7439 38.6111 40.2439 36.3889L40.6328 39.6111H45.7995Z" fill="#1DA1F2"/>
<path d="M67.7079 12.8889C65.2635 12.1111 61.9301 11.4444 58.7079 11.4444C53.5412 11.4444 48.7635 13.5 48.7635 18.9444C48.7635 29.1667 63.319 26.9444 63.319 31.7222C63.319 34.1111 60.9857 34.7222 58.0968 34.7222C54.7635 34.7222 50.7079 33.5556 48.819 32.8333L48.0968 38.4444C50.7635 39.2222 54.6523 40 58.1523 40C63.8746 40 68.9301 38.3333 68.9301 32.0556C68.9301 21.7222 54.3746 24.3889 54.3746 19.1667C54.3746 17.3889 56.4857 16.7222 58.9857 16.7222C62.0412 16.7222 65.7079 17.5556 66.9301 18L67.7079 12.8889Z" fill="#1DA1F2"/>
<path d="M79.2296 17.1111H84.7851V11.8333H79.2296V3.5L73.674 4.61111V11.8333H70.674V17.1111H73.674V32.1667C73.674 37.4444 76.2851 40 80.3407 40C81.8407 40 83.2296 39.5556 84.6185 38.8333L84.2851 33.7778C83.3407 34.3333 82.2851 34.7222 81.3407 34.7222C80.174 34.7222 79.2296 34.0556 79.2296 32.0556V17.1111Z" fill="#1DA1F2"/>
<path d="M108.178 39.6111V20.5C108.178 13.7778 103.066 11.4444 97.3997 11.4444C94.2331 11.4444 90.8997 12.1667 88.122 13.2222L88.7886 18.6111C90.3442 17.8889 94.122 16.7222 97.3442 16.7222C100.233 16.7222 102.622 17.6667 102.622 20.7778V22.2222L96.4553 22.5556C90.3997 22.8889 86.5108 25.6111 86.5108 31.7222C86.5108 37.3889 90.2886 40 94.7331 40C97.3442 40 100.178 39.0556 102.622 37.2778L103.011 39.6111H108.178ZM96.5664 27.6667L102.622 27.3333V32.2778C100.733 33.4444 98.1775 34.7222 95.2331 34.7222C93.3442 34.7222 92.0664 33.5 92.0664 31.7222C92.0664 29.6111 93.2886 27.8333 96.5664 27.6667Z" fill="#1DA1F2"/>
<path d="M119.56 39.6111V16.9444C119.56 13.3333 118.227 11.8333 114.338 11.8333H111.394V17.1111H113.171C113.783 17.1111 114.005 17.3333 114.005 17.9444V39.6111H119.56ZM111.894 3.94445C111.894 6.11111 113.671 7.88889 115.838 7.88889C118.005 7.88889 119.783 6.11111 119.783 3.94445C119.783 1.77778 118.005 0 115.838 0C113.671 0 111.894 1.77778 111.894 3.94445Z" fill="#1DA1F2"/>
<path d="M124.267 11.8333V39.6111H129.823V21.3333C131.823 18.8333 134.878 16.7222 137.545 16.7222C139.601 16.7222 140.656 17.5556 140.656 19.7222V39.6111H146.212V19.6667C146.212 13.7778 142.49 11.4444 138.212 11.4444C134.934 11.4444 132.212 13 129.823 15.2778L129.434 11.8333H124.267Z" fill="#1DA1F2"/>
</svg>
